<svg height="512pt" viewBox="0 0 512 512" width="512pt" xmlns="http://www.w3.org/2000/svg"><path d="m137.886719 374.113281-31.820313-31.820312-106.066406 106.066406 63.640625 63.640625 106.066406-106.066406zm0 0" fill="#725d57"/><path d="m137.886719 374.109375 31.820312 31.820313-106.066406 106.066406-31.816406-31.820313zm0 0" fill="#53433f"/><path d="m512 0-174.046875 24.871094-201.953125 243.320312 53.902344 53.90625 53.90625 53.902344 243.320312-201.953125zm0 0" fill="#f2f2f2"/><path d="m487.128906 174.046875 24.871094-174.046875-322.097656 322.097656 53.90625 53.902344zm0 0" fill="#cecee6"/><path d="m348.621094 457.570312-110.34375-110.34375-63.640625 63.636719 26.886719 26.890625c5.855468 5.851563 5.855468 15.359375 0 21.214844l-35.03125 35.027344zm0 0" fill="#ff9100"/><path d="m54.429688 163.378906-36.425782 182.125 35.027344-35.03125c5.855469-5.851562 15.363281-5.851562 21.214844 0l26.890625 26.890625 63.636719-63.640625zm0 0" fill="#fdbf00"/><path d="m222.738281 289.261719c-29.273437-29.273438-76.792969-29.273438-106.066406 0-29.273437 29.273437-29.273437 76.792969 0 106.066406s76.792969 29.273437 106.066406 0c29.273438-29.273437 29.273438-76.792969 0-106.066406zm0 0" fill="#ffda2d"/><path d="m222.738281 395.328125c-29.273437 29.273437-76.792969 29.273437-106.066406 0l106.066406-106.066406c29.273438 29.273437 29.273438 76.792969 0 106.066406zm0 0" fill="#fdbf00"/><path d="m201.523438 310.476562c-17.605469-17.609374-46.03125-17.609374-63.636719 0-17.609375 17.605469-17.609375 46.03125 0 63.636719 17.605469 17.609375 46.03125 17.609375 63.636719 0 17.609374-17.605469 17.609374-46.03125 0-63.636719zm0 0" fill="#fdbf00"/><path d="m137.886719 374.113281 63.640625-63.640625c17.605468 17.609375 17.605468 46.035156 0 63.640625-17.609375 17.605469-46.035156 17.609375-63.640625 0zm0 0" fill="#ff9100"/><path d="m148.488281 342.292969 21.214844-21.214844 21.210937 21.214844-21.210937 21.210937zm0 0" fill="#ffda2d"/><path d="m159.097656 352.898438 21.210938-21.210938 10.605468 10.605469-21.210937 21.214843zm0 0" fill="#fdbf00"/></svg>